# Blender v2.79 (sub 0) OBJ File: '1.blend'
# www.blender.org
o coarse
v 1.652986 -0.591200 3.692430
v 1.652986 0.174245 3.692430
v 0.633729 -0.304052 -4.192469
v 0.633729 0.092986 -4.192469
v 1.652986 -0.591200 -2.196466
v 1.652986 0.174245 -2.196466
v 1.652986 0.174245 0.792576
v 1.652986 -0.591200 0.792576
v 4.433336 -0.121599 1.787210
v 4.433336 -0.121599 3.240498
v 4.433336 -0.384727 3.240498
v 4.433336 -0.384727 1.787210
v -1.652986 -0.591200 3.692430
v -1.652986 0.174245 3.692430
v -0.633729 -0.304052 -4.192469
v -0.633729 0.092986 -4.192469
v -1.652986 -0.591200 -2.196466
v -1.652986 0.174245 -2.196466
v 0.000000 -0.304052 -4.192469
v 0.000000 0.092986 -4.192469
v 0.000000 -1.018276 3.692430
v 0.000000 1.180218 3.692430
v -1.652986 0.174245 0.792576
v -1.652986 -0.591200 0.792576
v 0.000000 1.180218 -0.795934
v 0.000000 -1.018276 -0.918080
v -4.433336 -0.121599 1.787210
v -4.433336 -0.121599 3.240498
v -4.433336 -0.384727 3.240498
v -4.433336 -0.384727 1.787210
vn 0.0000 0.0000 -1.0000
vn 0.1604 0.0000 0.9870
vn 0.2502 -0.9682 0.0000
vn 0.0710 -0.9773 -0.1994
vn 0.8906 0.0000 -0.4548
vn 0.2570 0.9333 -0.2508
vn 0.5199 0.8542 0.0000
vn 0.0000 0.0000 1.0000
vn 1.0000 0.0000 0.0000
vn 0.0741 -0.9973 0.0000
vn 0.1058 0.9944 0.0000
vn 0.3368 0.0000 -0.9416
vn -0.1604 0.0000 0.9870
vn -0.2502 -0.9682 0.0000
vn -0.0710 -0.9773 -0.1994
vn -0.8906 0.0000 -0.4548
vn -0.2570 0.9333 -0.2508
vn -0.5199 0.8542 0.0000
vn -1.0000 0.0000 0.0000
vn -0.0741 -0.9973 0.0000
vn -0.1058 0.9944 0.0000
vn -0.3368 0.0000 -0.9416
s off
f 19//1 20//1 4//1 3//1
f 2//2 1//2 11//2 10//2
f 26//3 8//3 1//3 21//3
f 19//4 3//4 5//4 26//4
f 3//5 4//5 6//5 5//5
f 4//6 20//6 25//6 6//6
f 7//7 25//7 22//7 2//7
f 1//8 2//8 22//8 21//8
f 6//7 25//7 7//7
f 26//3 5//3 8//3
f 5//9 6//9 7//9 8//9
f 12//9 9//9 10//9 11//9
f 1//10 8//10 12//10 11//10
f 7//11 2//11 10//11 9//11
f 8//12 7//12 9//12 12//12
f 19//1 15//1 16//1 20//1
f 14//13 28//13 29//13 13//13
f 26//14 21//14 13//14 24//14
f 19//15 26//15 17//15 15//15
f 15//16 17//16 18//16 16//16
f 16//17 18//17 25//17 20//17
f 23//18 14//18 22//18 25//18
f 13//8 21//8 22//8 14//8
f 18//18 23//18 25//18
f 26//14 24//14 17//14
f 17//19 24//19 23//19 18//19
f 30//19 29//19 28//19 27//19
f 13//20 29//20 30//20 24//20
f 23//21 27//21 28//21 14//21
f 24//22 30//22 27//22 23//22
o fine
v 0.626961 -0.696175 3.498265
v 0.626961 0.796378 0.043799
v 0.626961 0.007820 0.942852
v 0.626961 -0.511855 0.942852
v 1.654875 0.007820 0.942852
v 1.654875 -0.511855 0.942852
v 0.626961 0.007820 3.233351
v 0.626961 -0.511855 3.233351
v 4.438606 -0.113066 1.792082
v 4.438606 -0.390969 1.792082
v 4.438606 -0.113066 3.233351
v 4.438606 -0.390969 3.233351
v 0.626961 0.796378 3.498265
v 0.983610 0.172774 3.717234
v 0.983610 0.172774 1.443691
v 1.257010 0.172774 3.717234
v 1.257009 0.172774 1.443691
v 1.450332 0.366097 3.717234
v 1.450332 0.366097 1.443691
v 1.450332 0.639496 3.717234
v 1.450332 0.639496 1.443691
v 1.257009 0.832819 3.717234
v 1.257009 0.832819 1.443691
v 0.983610 0.832819 3.717234
v 0.983610 0.832819 1.443691
v 0.790288 0.639496 3.717234
v 0.790288 0.639496 1.443691
v 0.790288 0.366097 3.717234
v 0.790288 0.366097 1.443691
v 1.654875 0.007820 -0.811737
v 1.654875 -0.511855 -0.811737
v 0.626961 -0.696175 -0.811737
v 0.626961 0.796378 -0.811737
v 0.626961 0.276125 -2.995215
v 0.626961 -0.511855 -2.995215
v 1.654875 -0.511855 -2.443199
v 1.654875 0.007820 -2.443199
v 0.626961 0.097460 -4.187603
v 0.626961 -0.333191 -4.187603
v 0.790288 0.639496 1.883684
v 0.790288 0.639496 3.277241
v 0.790288 0.366097 3.277241
v 0.790288 0.366097 1.883684
v 0.626961 0.639496 1.883684
v 0.626961 0.639496 3.277241
v 0.626961 0.366097 3.277241
v 0.626961 0.366097 1.883684
v -0.626961 -0.696175 3.498265
v -0.626961 0.796378 0.043799
v -0.626961 0.007820 0.942852
v -0.626961 -0.511855 0.942852
v -1.654875 0.007820 0.942852
v -1.654875 -0.511855 0.942852
v -0.626961 0.007820 3.233351
v -0.626961 -0.511855 3.233351
v -4.438606 -0.113066 1.792082
v -4.438606 -0.390969 1.792082
v -4.438606 -0.113066 3.233351
v -4.438606 -0.390969 3.233351
v 0.000000 1.177556 3.498265
v 0.000000 -1.077353 3.498265
v -0.626961 0.796378 3.498265
v 0.000000 -1.077353 -0.811737
v -0.983610 0.172774 3.717234
v -0.983610 0.172774 1.443691
v -1.257010 0.172774 3.717234
v -1.257009 0.172774 1.443691
v -1.450332 0.366097 3.717234
v -1.450332 0.366097 1.443691
v -1.450332 0.639496 3.717234
v -1.450332 0.639496 1.443691
v -1.257009 0.832819 3.717234
v -1.257009 0.832819 1.443691
v -0.983610 0.832819 3.717234
v -0.983610 0.832819 1.443691
v -0.790288 0.639496 3.717234
v -0.790288 0.639496 1.443691
v -0.790288 0.366097 3.717234
v -0.790288 0.366097 1.443691
v -1.654875 0.007820 -0.811737
v 0.000000 1.177556 -0.811737
v -1.654875 -0.511855 -0.811737
v -0.626961 -0.696175 -0.811737
v -0.626961 0.796378 -0.811737
v 0.000000 0.477364 -2.995215
v -0.626961 0.276125 -2.995215
v -0.626961 -0.511855 -2.995215
v 0.000000 -0.713095 -2.995215
v -1.654875 -0.511855 -2.443199
v -1.654875 0.007820 -2.443199
v 0.000000 0.097460 -4.187603
v -0.626961 0.097460 -4.187603
v -0.626961 -0.333191 -4.187603
v 0.000000 -0.333191 -4.187603
v -0.790288 0.639496 1.883684
v -0.790288 0.639496 3.277241
v -0.790288 0.366097 3.277241
v -0.790288 0.366097 1.883684
v -0.626961 0.639496 1.883684
v -0.626961 0.639496 3.277241
v -0.626961 0.366097 3.277241
v -0.626961 0.366097 1.883684
v 0.626961 0.796378 0.043799
v 0.626961 0.796378 0.043799
v 0.626961 0.796378 3.498265
v 0.626961 0.796378 3.498265
v 1.654875 0.007820 0.942852
v 1.654875 0.007820 0.942852
v 1.654875 0.007820 0.942852
v 1.654875 0.007820 0.942852
v 1.654875 -0.511855 0.942852
v 1.654875 -0.511855 0.942852
v 0.626961 0.007820 3.233351
v 0.626961 0.007820 3.233351
v 0.626961 -0.511855 3.233351
v 0.626961 -0.511855 3.233351
v 0.626961 0.007820 0.942852
v 0.626961 0.007820 0.942852
v 4.438606 -0.113066 1.792082
v 4.438606 -0.113066 1.792082
v 4.438606 -0.390969 1.792082
v 4.438606 -0.390969 1.792082
v 4.438606 -0.113066 3.233351
v 4.438606 -0.113066 3.233351
v 4.438606 -0.390969 3.233351
v 4.438606 -0.390969 3.233351
v 0.000000 -1.077353 3.498265
v 0.000000 -1.077353 3.498265
v 0.626961 -0.696175 3.498265
v 0.626961 -0.696175 3.498265
v 0.000000 1.177556 3.498265
v 0.000000 1.177556 3.498265
v 0.000000 -1.077353 -0.811737
v 0.626961 -0.511855 0.942852
v 0.983610 0.172774 3.717234
v 0.983610 0.172774 3.717234
v 1.257010 0.172774 3.717234
v 1.257010 0.172774 3.717234
v 1.654875 0.007820 -0.811737
v 1.257009 0.172774 1.443691
v 1.257009 0.172774 1.443691
v 0.983610 0.172774 1.443691
v 0.983610 0.172774 1.443691
v 1.450332 0.366097 3.717234
v 1.450332 0.366097 3.717234
v 1.450332 0.366097 1.443691
v 1.450332 0.366097 1.443691
v 1.450332 0.639496 3.717234
v 1.450332 0.639496 3.717234
v 1.450332 0.639496 1.443691
v 1.450332 0.639496 1.443691
v 1.257009 0.832819 3.717234
v 1.257009 0.832819 3.717234
v 1.257009 0.832819 1.443691
v 1.257009 0.832819 1.443691
v 0.983610 0.832819 3.717234
v 0.983610 0.832819 3.717234
v 0.983610 0.832819 1.443691
v 0.983610 0.832819 1.443691
v 0.790288 0.639496 3.717234
v 0.790288 0.639496 3.717234
v 0.790288 0.639496 3.717234
v 0.790288 0.639496 1.443691
v 0.790288 0.639496 1.443691
v 0.790288 0.639496 1.443691
v 0.790288 0.366097 3.717234
v 0.790288 0.366097 3.717234
v 0.790288 0.366097 3.717234
v 0.790288 0.366097 1.443691
v 0.790288 0.366097 1.443691
v 0.790288 0.366097 1.443691
v 0.626961 0.276125 -2.995215
v 0.626961 0.276125 -2.995215
v 0.626961 -0.511855 -2.995215
v 0.626961 -0.511855 -2.995215
v 1.654875 0.007820 -2.443199
v 1.654875 0.007820 -2.443199
v 1.654875 -0.511855 -2.443199
v 1.654875 -0.511855 -2.443199
v 0.000000 1.177556 -0.811737
v 1.654875 -0.511855 -0.811737
v 0.000000 0.097460 -4.187603
v 0.626961 0.097460 -4.187603
v 0.626961 0.097460 -4.187603
v 0.626961 -0.333191 -4.187603
v 0.626961 -0.333191 -4.187603
v 0.000000 -0.333191 -4.187603
v 0.790288 0.639496 1.883684
v 0.790288 0.639496 1.883684
v 0.790288 0.639496 1.883684
v 0.790288 0.639496 3.277241
v 0.790288 0.639496 3.277241
v 0.790288 0.639496 3.277241
v 0.790288 0.366097 3.277241
v 0.790288 0.366097 3.277241
v 0.790288 0.366097 3.277241
v 0.790288 0.366097 1.883684
v 0.790288 0.366097 1.883684
v 0.790288 0.366097 1.883684
v 0.626961 0.366097 1.883684
v 0.626961 0.639496 1.883684
v 0.626961 0.639496 3.277241
v 0.626961 0.366097 3.277241
v 0.626961 -0.696175 -0.811737
v -0.626961 0.796378 0.043799
v -0.626961 0.796378 0.043799
v -0.626961 0.796378 3.498265
v -0.626961 0.796378 3.498265
v -1.654875 0.007820 0.942852
v -1.654875 0.007820 0.942852
v -1.654875 0.007820 0.942852
v -1.654875 0.007820 0.942852
v -1.654875 -0.511855 0.942852
v -1.654875 -0.511855 0.942852
v -0.626961 0.007820 3.233351
v -0.626961 0.007820 3.233351
v -0.626961 -0.511855 3.233351
v -0.626961 -0.511855 3.233351
v -0.626961 0.007820 0.942852
v -0.626961 0.007820 0.942852
v -4.438606 -0.113066 1.792082
v -4.438606 -0.113066 1.792082
v -4.438606 -0.390969 1.792082
v -4.438606 -0.390969 1.792082
v -4.438606 -0.113066 3.233351
v -4.438606 -0.113066 3.233351
v -4.438606 -0.390969 3.233351
v -4.438606 -0.390969 3.233351
v -0.626961 -0.696175 3.498265
v -0.626961 -0.696175 3.498265
v -0.626961 -0.511855 0.942852
v -0.983610 0.172774 3.717234
v -0.983610 0.172774 3.717234
v -1.257010 0.172774 3.717234
v -1.257010 0.172774 3.717234
v -1.654875 0.007820 -0.811737
v -1.257009 0.172774 1.443691
v -1.257009 0.172774 1.443691
v -0.983610 0.172774 1.443691
v -0.983610 0.172774 1.443691
v -1.450332 0.366097 3.717234
v -1.450332 0.366097 3.717234
v -1.450332 0.366097 1.443691
v -1.450332 0.366097 1.443691
v -1.450332 0.639496 3.717234
v -1.450332 0.639496 3.717234
v -1.450332 0.639496 1.443691
v -1.450332 0.639496 1.443691
v -1.257009 0.832819 3.717234
v -1.257009 0.832819 3.717234
v -1.257009 0.832819 1.443691
v -1.257009 0.832819 1.443691
v -0.983610 0.832819 3.717234
v -0.983610 0.832819 3.717234
v -0.983610 0.832819 1.443691
v -0.983610 0.832819 1.443691
v -0.790288 0.639496 3.717234
v -0.790288 0.639496 3.717234
v -0.790288 0.639496 3.717234
v -0.790288 0.639496 1.443691
v -0.790288 0.639496 1.443691
v -0.790288 0.639496 1.443691
v -0.790288 0.366097 3.717234
v -0.790288 0.366097 3.717234
v -0.790288 0.366097 3.717234
v -0.790288 0.366097 1.443691
v -0.790288 0.366097 1.443691
v -0.790288 0.366097 1.443691
v -0.626961 0.276125 -2.995215
v -0.626961 0.276125 -2.995215
v -0.626961 -0.511855 -2.995215
v -0.626961 -0.511855 -2.995215
v -1.654875 0.007820 -2.443199
v -1.654875 0.007820 -2.443199
v -1.654875 -0.511855 -2.443199
v -1.654875 -0.511855 -2.443199
v -1.654875 -0.511855 -0.811737
v -0.626961 0.097460 -4.187603
v -0.626961 0.097460 -4.187603
v -0.626961 -0.333191 -4.187603
v -0.626961 -0.333191 -4.187603
v -0.790288 0.639496 1.883684
v -0.790288 0.639496 1.883684
v -0.790288 0.639496 1.883684
v -0.790288 0.639496 3.277241
v -0.790288 0.639496 3.277241
v -0.790288 0.639496 3.277241
v -0.790288 0.366097 3.277241
v -0.790288 0.366097 3.277241
v -0.790288 0.366097 3.277241
v -0.790288 0.366097 1.883684
v -0.790288 0.366097 1.883684
v -0.790288 0.366097 1.883684
v -0.626961 0.366097 1.883684
v -0.626961 0.639496 1.883684
v -0.626961 0.639496 3.277241
v -0.626961 0.366097 3.277241
v -0.626961 -0.696175 -0.811737
vt 0.553313 0.088650
vt 0.556134 0.180719
vt 0.016528 0.179543
vt 0.016528 0.089703
vt 0.422116 0.870163
vt 0.507534 0.968807
vt 0.014018 0.895118
vt 0.026563 0.811101
vt 0.556134 0.180719
vt 0.333676 0.203106
vt 0.049361 0.202493
vt 0.016528 0.179543
vt 0.980847 0.748704
vt 0.981473 0.369551
vt 0.810693 0.748423
vt 0.340818 0.706622
vt 0.541884 0.736050
vt 0.350203 0.368366
vt 0.349735 0.606944
vt 0.243837 0.280959
vt 0.302630 0.213928
vt 0.321821 0.349359
vt 0.980761 0.369551
vt 0.980847 0.748704
vt 0.810693 0.748743
vt 0.005706 0.042872
vt 0.005706 0.006226
vt 0.274487 0.014749
vt 0.274487 0.034346
vt 0.349470 0.608128
vt 0.349490 0.369551
vt 0.581350 0.006223
vt 0.581350 0.042869
vt 0.376120 0.034345
vt 0.376120 0.014749
vt 0.843086 0.243053
vt 0.950360 0.243053
vt 0.977756 0.288115
vt 0.815689 0.288115
vt 0.045158 0.235882
vt 0.045158 0.280959
vt 0.022179 0.349359
vt 0.022179 0.219894
vt 0.376120 0.014749
vt 0.376120 0.034345
vt 0.274487 0.034346
vt 0.274487 0.014749
vt 0.054535 0.583151
vt 0.053897 0.390670
vt 0.077043 0.390594
vt 0.077681 0.583074
vt 0.077681 0.583074
vt 0.077043 0.390594
vt 0.100189 0.390517
vt 0.100827 0.582997
vt 0.100827 0.582997
vt 0.100189 0.390517
vt 0.123336 0.390440
vt 0.123973 0.582920
vt 0.344840 0.331502
vt 0.333676 0.203106
vt 0.564007 0.312446
vt 0.123973 0.582920
vt 0.123336 0.390440
vt 0.146482 0.390364
vt 0.147119 0.582844
vt 0.581350 0.042869
vt 0.581350 0.006223
vt 0.705078 0.006222
vt 0.705078 0.042868
vt 0.147119 0.582844
vt 0.146482 0.390364
vt 0.169628 0.390287
vt 0.170265 0.582767
vt 0.170265 0.582767
vt 0.169628 0.390287
vt 0.192774 0.390211
vt 0.193412 0.582691
vt 0.274280 0.778979
vt 0.218406 0.778979
vt 0.178897 0.739470
vt 0.178897 0.683596
vt 0.218406 0.644087
vt 0.274280 0.644087
vt 0.313789 0.683596
vt 0.313789 0.739470
vt 0.193435 0.584778
vt 0.193412 0.582691
vt 0.196771 0.582652
vt 0.196795 0.584740
vt 0.031388 0.583227
vt 0.030751 0.390747
vt 0.053897 0.390670
vt 0.054535 0.583151
vt 0.118714 0.637500
vt 0.159189 0.677976
vt 0.159189 0.735217
vt 0.118714 0.775692
vt 0.061473 0.775692
vt 0.020997 0.735217
vt 0.020997 0.677976
vt 0.061473 0.637500
vt 0.243837 0.280959
vt 0.321821 0.349359
vt 0.520220 0.884716
vt 0.780287 0.891288
vt 0.773009 0.967066
vt 0.902399 0.061787
vt 0.902398 0.006221
vt 0.986481 0.018819
vt 0.986482 0.049187
vt 0.902398 0.006221
vt 0.902399 0.061787
vt 0.820123 0.042867
vt 0.820123 0.006222
vt 0.728701 0.762864
vt 0.828265 0.096578
vt 0.831058 0.177224
vt 0.820123 0.006222
vt 0.820123 0.042867
vt 0.765849 0.304582
vt 0.967461 0.968807
vt 0.917690 0.967475
vt 0.919629 0.895017
vt 0.969400 0.896349
vt 0.919629 0.895017
vt 0.917690 0.967475
vt 0.981367 0.105511
vt 0.978728 0.182299
vt 0.200129 0.582555
vt 0.200788 0.582536
vt 0.200799 0.582930
vt 0.200140 0.582949
vt 0.193412 0.582691
vt 0.192774 0.390211
vt 0.200129 0.582555
vt 0.196771 0.582652
vt 0.192774 0.390211
vt 0.312292 0.385641
vt 0.319646 0.577986
vt 0.200129 0.582555
vt 0.030751 0.390747
vt 0.031388 0.583227
vt 0.024033 0.390882
vt 0.027392 0.390785
vt 0.196771 0.582652
vt 0.200129 0.582555
vt 0.200140 0.582949
vt 0.196782 0.583046
vt 0.027392 0.390785
vt 0.024033 0.390882
vt 0.024022 0.390489
vt 0.027380 0.390392
vt 0.196112 0.582671
vt 0.196771 0.582652
vt 0.196782 0.583046
vt 0.196123 0.583065
vt 0.553313 0.088650
vt 0.016528 0.089703
vt 0.016528 0.179543
vt 0.556134 0.180719
vt 0.422116 0.870163
vt 0.026563 0.811101
vt 0.014018 0.895118
vt 0.507534 0.968807
vt 0.556134 0.180719
vt 0.016528 0.179543
vt 0.049361 0.202493
vt 0.333676 0.203106
vt 0.980847 0.748704
vt 0.810693 0.748423
vt 0.981473 0.369551
vt 0.541884 0.736050
vt 0.340818 0.706622
vt 0.349735 0.606944
vt 0.350203 0.368366
vt 0.243837 0.280959
vt 0.321821 0.349359
vt 0.302630 0.213928
vt 0.980761 0.369551
vt 0.810693 0.748743
vt 0.980847 0.748704
vt 0.005706 0.042872
vt 0.274487 0.034346
vt 0.274487 0.014749
vt 0.005706 0.006226
vt 0.349490 0.369551
vt 0.349470 0.608128
vt 0.581350 0.006223
vt 0.376120 0.014749
vt 0.376120 0.034345
vt 0.581350 0.042869
vt 0.843086 0.243053
vt 0.950360 0.243053
vt 0.045158 0.235882
vt 0.022179 0.219894
vt 0.022179 0.349359
vt 0.045158 0.280959
vt 0.376120 0.014749
vt 0.274487 0.014749
vt 0.274487 0.034346
vt 0.376120 0.034345
vt 0.054535 0.583151
vt 0.077681 0.583074
vt 0.077043 0.390594
vt 0.053897 0.390670
vt 0.077681 0.583074
vt 0.100827 0.582997
vt 0.100189 0.390517
vt 0.077043 0.390594
vt 0.100827 0.582997
vt 0.123973 0.582920
vt 0.123336 0.390440
vt 0.100189 0.390517
vt 0.344840 0.331502
vt 0.564007 0.312446
vt 0.333676 0.203106
vt 0.123973 0.582920
vt 0.147119 0.582844
vt 0.146482 0.390364
vt 0.123336 0.390440
vt 0.581350 0.042869
vt 0.705078 0.042868
vt 0.705078 0.006222
vt 0.581350 0.006223
vt 0.147119 0.582844
vt 0.170265 0.582767
vt 0.169628 0.390287
vt 0.146482 0.390364
vt 0.170265 0.582767
vt 0.193412 0.582691
vt 0.192774 0.390211
vt 0.169628 0.390287
vt 0.274280 0.778979
vt 0.313789 0.739470
vt 0.313789 0.683596
vt 0.274280 0.644087
vt 0.218406 0.644087
vt 0.178897 0.683596
vt 0.178897 0.739470
vt 0.218406 0.778979
vt 0.193435 0.584778
vt 0.196795 0.584740
vt 0.196771 0.582652
vt 0.193412 0.582691
vt 0.031388 0.583227
vt 0.054535 0.583151
vt 0.053897 0.390670
vt 0.030751 0.390747
vt 0.118714 0.637500
vt 0.061473 0.637500
vt 0.020997 0.677976
vt 0.020997 0.735217
vt 0.061473 0.775692
vt 0.118714 0.775692
vt 0.159189 0.735217
vt 0.159189 0.677976
vt 0.321821 0.349359
vt 0.243837 0.280959
vt 0.780287 0.891288
vt 0.520220 0.884716
vt 0.902399 0.061787
vt 0.986482 0.049187
vt 0.986481 0.018819
vt 0.902398 0.006221
vt 0.902398 0.006221
vt 0.820123 0.006222
vt 0.820123 0.042867
vt 0.902399 0.061787
vt 0.728701 0.762864
vt 0.831058 0.177224
vt 0.820123 0.042867
vt 0.820123 0.006222
vt 0.765849 0.304582
vt 0.969400 0.896349
vt 0.919629 0.895017
vt 0.919629 0.895017
vt 0.978728 0.182299
vt 0.200129 0.582555
vt 0.200140 0.582949
vt 0.200799 0.582930
vt 0.200788 0.582536
vt 0.193412 0.582691
vt 0.196771 0.582652
vt 0.200129 0.582555
vt 0.192774 0.390211
vt 0.192774 0.390211
vt 0.200129 0.582555
vt 0.319646 0.577986
vt 0.312292 0.385641
vt 0.030751 0.390747
vt 0.027392 0.390785
vt 0.024033 0.390882
vt 0.031388 0.583227
vt 0.196771 0.582652
vt 0.196782 0.583046
vt 0.200140 0.582949
vt 0.200129 0.582555
vt 0.027392 0.390785
vt 0.027380 0.390392
vt 0.024022 0.390489
vt 0.024033 0.390882
vt 0.196112 0.582671
vt 0.196123 0.583065
vt 0.196782 0.583046
vt 0.196771 0.582652
vn 0.4719 -0.8799 -0.0552
vn 0.2906 -0.9564 -0.0286
vn 0.5195 -0.8545 0.0000
vn 0.5568 0.8307 0.0000
vn 0.4712 0.8742 -0.1173
vn 0.5195 0.8545 0.0000
vn 1.0000 0.0000 0.0000
vn 0.0000 1.0000 0.0000
vn 0.0259 0.9996 0.0071
vn 0.0211 0.9998 0.0058
vn 0.6087 0.7934 0.0000
vn 0.5463 0.8354 -0.0596
vn 0.0354 0.9993 0.0097
vn 0.0000 0.7518 0.6594
vn 0.0259 -0.9996 0.0071
vn 0.0446 -0.9987 0.0262
vn 0.0453 -0.9987 0.0223
vn 0.0000 0.0000 1.0000
vn 0.0354 -0.9993 0.0097
vn 0.2918 0.0000 -0.9565
vn 0.0000 -1.0000 0.0000
vn 0.7071 -0.7071 0.0000
vn 0.0957 -0.9954 0.0021
vn 0.7071 0.7071 0.0000
vn -0.7071 0.7071 0.0000
vn 0.0000 0.0000 -1.0000
vn -1.0000 0.0000 0.0000
vn -0.7071 -0.7071 0.0000
vn 0.5070 0.8567 -0.0942
vn 0.3357 0.9191 -0.2060
vn 0.0000 0.9685 -0.2491
vn 0.4731 0.0000 -0.8810
vn 0.4790 0.8697 -0.1186
vn 0.0000 -0.9843 -0.1764
vn 0.2404 -0.9603 -0.1411
vn 0.1020 -0.9936 -0.0480
vn 0.1544 0.9620 -0.2253
vn 0.0000 0.9736 -0.2280
vn 0.0000 -0.9736 -0.2280
vn 0.1544 -0.9620 -0.2253
vn 0.2051 0.1659 0.9646
vn 0.4476 0.3622 0.8176
vn 0.4687 0.2171 0.8562
vn 0.2070 0.0959 0.9736
vn -0.4719 -0.8799 -0.0552
vn -0.5195 -0.8545 0.0000
vn -0.2906 -0.9564 -0.0286
vn -0.5568 0.8307 0.0000
vn -0.5195 0.8545 0.0000
vn -0.4712 0.8742 -0.1173
vn -0.0211 0.9998 0.0058
vn -0.0259 0.9996 0.0071
vn -0.5463 0.8354 -0.0596
vn -0.6087 0.7934 0.0000
vn -0.0354 0.9993 0.0097
vn -0.0259 -0.9996 0.0071
vn -0.0453 -0.9987 0.0223
vn -0.0446 -0.9987 0.0262
vn -0.0354 -0.9993 0.0097
vn -0.2918 0.0000 -0.9565
vn -0.0957 -0.9954 0.0021
vn -0.3357 0.9191 -0.2060
vn -0.5070 0.8567 -0.0942
vn -0.4731 0.0000 -0.8810
vn -0.4790 0.8697 -0.1186
vn -0.2404 -0.9603 -0.1411
vn -0.1020 -0.9936 -0.0480
vn -0.1544 0.9620 -0.2253
vn -0.1544 -0.9620 -0.2253
vn -0.2051 0.1659 0.9646
vn -0.4476 0.3622 0.8176
vn -0.4687 0.2171 0.8562
vn -0.2070 0.0959 0.9736
s 1
f 163/1/23 234/2/24 160/3/25 157/4/25
f 133/5/26 210/6/27 161/7/28 135/8/28
f 62/9/29 34/10/29 38/11/29 159/12/29
f 147/13/30 144/14/31 138/15/32
f 133/5/26 139/16/33 169/17/34
f 138/15/32 144/14/31 154/18/35 150/19/35
f 148/20/36 140/21/36 134/22/36
f 146/23/37 164/24/38 142/25/39
f 143/26/40 145/27/40 155/28/40 153/29/40
f 146/23/37 142/25/39 152/30/41 156/31/41
f 141/32/42 137/33/42 149/34/42 151/35/42
f 31/36/40 43/37/40 162/38/40 158/39/40
f 38/40/29 37/41/29 136/42/29 159/43/29
f 40/44/29 39/45/29 41/46/29 42/47/29
f 165/48/43 172/49/43 170/50/43 167/51/43
f 168/52/44 171/53/44 176/54/44 174/55/44
f 175/56/29 177/57/29 180/58/29 178/59/29
f 142/60/39 164/61/38 234/2/24 211/62/45
f 179/63/46 181/64/46 184/65/46 182/66/46
f 35/67/29 36/68/29 61/69/29 60/70/29
f 183/71/30 185/72/30 188/73/30 186/74/30
f 187/75/47 189/76/47 193/77/47 190/78/47
f 47/79/48 173/80/48 199/81/48 194/82/48 55/83/48 53/84/48 51/85/48 49/86/48
f 196/87/49 191/88/49 222/89/49 224/90/49
f 197/91/50 200/92/50 45/93/50 166/94/50
f 44/95/40 46/96/40 48/97/40 50/98/40 52/99/40 54/100/40 192/101/40 198/102/40
f 37/41/29 33/103/29 32/104/29 136/42/29
f 210/6/27 63/105/51 202/106/52 115/107/53
f 133/5/26 169/17/34 63/105/51
f 210/6/27 133/5/26 63/105/51
f 203/108/29 205/109/29 216/110/29 214/111/29
f 65/112/54 64/113/54 206/114/54 208/115/54
f 63/105/51 169/17/34 207/116/55 202/106/52
f 234/2/24 163/1/23 118/117/56 204/118/57
f 60/70/29 61/69/29 209/119/29 67/120/29
f 211/62/45 234/2/24 204/118/57 66/121/58
f 217/122/48 212/123/48 213/124/48 215/125/48
f 115/107/53 202/106/52 68/126/59 121/127/60
f 204/118/57 118/117/56 124/128/61 69/129/62
f 219/130/48 227/131/48 230/132/48 74/133/48
f 56/134/63 195/135/64 218/136/40 221/137/40
f 57/138/49 201/139/49 229/140/49 220/141/49
f 59/142/65 58/143/66 225/144/29 228/145/29
f 223/146/30 70/147/30 231/148/30 232/149/30
f 73/150/43 226/151/43 76/152/43 77/153/43
f 72/154/40 71/155/40 75/156/40 233/157/40
f 93/158/67 91/159/68 260/160/68 328/161/69
f 235/162/70 237/163/71 90/164/71 111/165/72
f 113/166/49 259/167/49 85/168/49 81/169/49
f 249/170/30 240/171/73 246/172/74
f 235/162/70 266/173/75 241/174/76
f 240/171/73 252/175/77 256/176/77 246/172/74
f 250/177/36 236/178/36 242/179/36
f 248/180/78 244/181/79 261/182/80
f 245/183/40 255/184/40 257/185/40 247/186/40
f 248/180/78 258/187/81 254/188/81 244/181/79
f 243/189/82 253/190/82 251/191/82 239/192/82
f 78/193/40 158/39/40 162/38/40 92/194/40
f 85/195/49 259/196/49 238/197/49 84/198/49
f 87/199/49 89/200/49 88/201/49 86/202/49
f 262/203/43 264/204/43 267/205/43 269/206/43
f 265/207/50 271/208/50 273/209/50 268/210/50
f 272/211/49 275/212/49 277/213/49 274/214/49
f 244/215/79 307/216/83 328/161/69 261/217/80
f 276/218/47 279/219/47 281/220/47 278/221/47
f 82/222/49 110/223/49 112/224/49 83/225/49
f 280/226/30 283/227/30 285/228/30 282/229/30
f 284/230/46 287/231/46 290/232/46 286/233/46
f 97/234/48 99/235/48 101/236/48 103/237/48 105/238/48 291/239/48 296/240/48 270/241/48
f 293/242/29 318/243/29 316/244/29 288/245/29
f 294/246/44 263/247/44 95/248/44 297/249/44
f 94/250/40 295/251/40 289/252/40 104/253/40 102/254/40 100/255/40 98/256/40 96/257/40
f 84/198/49 238/197/49 79/258/49 80/259/49
f 111/165/72 115/107/53 299/260/84 114/261/85
f 235/162/70 114/261/85 266/173/75
f 111/165/72 114/261/85 235/162/70
f 300/262/49 309/263/49 311/264/49 302/265/49
f 117/266/86 305/267/86 303/268/86 116/269/86
f 114/261/85 299/260/84 304/270/87 266/173/75
f 328/161/69 301/271/88 118/117/56 93/158/67
f 110/223/49 120/272/49 306/273/49 112/224/49
f 307/216/83 119/274/89 301/271/88 328/161/69
f 217/122/48 310/275/48 308/276/48 212/123/48
f 115/107/53 121/127/60 122/277/90 299/260/84
f 301/271/88 123/278/91 124/128/61 118/117/56
f 313/279/48 129/280/48 324/281/48 321/282/48
f 106/283/92 315/284/40 312/285/40 292/286/93
f 107/287/29 314/288/29 323/289/29 298/290/29
f 109/291/94 322/292/49 319/293/49 108/294/95
f 317/295/30 326/296/30 325/297/30 125/298/30
f 128/299/43 132/300/43 131/301/43 320/302/43
f 127/303/40 327/304/40 130/305/40 126/306/40
